<svg width="18" height="14" viewBox="0 0 18 14" fill="none" xmlns="http://www.w3.org/2000/svg">
<path d="M17 7.75C17.4142 7.75 17.75 7.41421 17.75 7C17.75 6.58579 17.4142 6.25 17 6.25V7.75ZM1 6.25C0.585786 6.25 0.25 6.58579 0.25 7C0.25 7.41421 0.585786 7.75 1 7.75L1 6.25ZM17 6.25L1 6.25L1 7.75L17 7.75V6.25Z" fill="#1A0709"/>
<path d="M7.53033 1.53033C7.82322 1.23744 7.82322 0.762563 7.53033 0.46967C7.23744 0.176777 6.76256 0.176777 6.46967 0.46967L7.53033 1.53033ZM1 7L0.46967 6.46967C0.176777 6.76256 0.176777 7.23744 0.46967 7.53033L1 7ZM6.46967 13.5303C6.76256 13.8232 7.23744 13.8232 7.53033 13.5303C7.82322 13.2374 7.82322 12.7626 7.53033 12.4697L6.46967 13.5303ZM6.46967 0.46967L0.46967 6.46967L1.53033 7.53033L7.53033 1.53033L6.46967 0.46967ZM0.46967 7.53033L6.46967 13.5303L7.53033 12.4697L1.53033 6.46967L0.46967 7.53033Z" fill="#1A0709"/>
</svg>
