<svg width="30" height="30" viewBox="0 0 30 30" fill="none" xmlns="http://www.w3.org/2000/svg">
<path d="M1.25 15C1.25 18.0596 1.41557 20.4329 1.82691 22.2838C2.23509 24.1204 2.86847 25.3651 3.7517 26.2483C4.63492 27.1315 5.87957 27.7649 7.71623 28.1731C9.56708 28.5844 11.9404 28.75 15 28.75C18.0596 28.75 20.4329 28.5844 22.2838 28.1731C24.1204 27.7649 25.3651 27.1315 26.2483 26.2483C27.1315 25.3651 27.7649 24.1204 28.1731 22.2838C28.5844 20.4329 28.75 18.0596 28.75 15C28.75 11.9404 28.5844 9.56708 28.1731 7.71622C27.7649 5.87957 27.1315 4.63492 26.2483 3.7517C25.3651 2.86847 24.1204 2.23509 22.2838 1.82691C20.4329 1.41557 18.0596 1.25 15 1.25C11.9404 1.25 9.56708 1.41557 7.71623 1.82691C5.87957 2.23509 4.63492 2.86847 3.7517 3.7517C2.86847 4.63492 2.23509 5.87957 1.82691 7.71622C1.41557 9.56708 1.25 11.9404 1.25 15Z" stroke="#FF6600" stroke-width="2.5" stroke-linecap="round" stroke-linejoin="round"/>
<path d="M15 8.75V21.25M21.25 13.75V21.25M8.75 16.25V21.25" stroke="#FF6600" stroke-width="2.5" stroke-linecap="round" stroke-linejoin="round"/>
</svg>
