<svg width="10" height="10" viewBox="0 0 10 10" fill="none" xmlns="http://www.w3.org/2000/svg">
<path d="M5 9.58333C3.98013 9.58333 3.18903 9.52814 2.57208 9.39103C1.95986 9.25497 1.54497 9.04384 1.25057 8.74943C0.956158 8.45503 0.74503 8.04014 0.60897 7.42792C0.471857 6.81097 0.416667 6.01987 0.416667 5C0.416667 3.98013 0.471857 3.18903 0.60897 2.57207C0.74503 1.95986 0.956158 1.54497 1.25057 1.25057C1.54497 0.956158 1.95986 0.74503 2.57207 0.60897C3.18903 0.471857 3.98013 0.416667 5 0.416667C6.01987 0.416667 6.81097 0.471857 7.42792 0.60897C8.04014 0.74503 8.45503 0.956158 8.74943 1.25057C9.04384 1.54497 9.25497 1.95986 9.39103 2.57208C9.52814 3.18903 9.58333 3.98013 9.58333 5C9.58333 6.01987 9.52814 6.81097 9.39103 7.42792C9.25497 8.04014 9.04384 8.45503 8.74943 8.74943C8.45503 9.04384 8.04014 9.25497 7.42792 9.39103C6.81097 9.52814 6.01987 9.58333 5 9.58333Z" stroke="#FF6600" stroke-width="0.833333" stroke-linecap="round" stroke-linejoin="round"/>
<path d="M2.9165 2.91669H4.1665" stroke="#FF6600" stroke-width="0.833333" stroke-linecap="round" stroke-linejoin="round"/>
<path d="M2.9165 5H7.08317" stroke="#FF6600" stroke-width="0.833333" stroke-linecap="round" stroke-linejoin="round"/>
<path d="M5.8335 7.08331L7.0835 7.08331" stroke="#FF6600" stroke-width="0.833333" stroke-linecap="round" stroke-linejoin="round"/>
</svg>
