<svg width="24" height="24" viewBox="0 0 24 24" fill="none" xmlns="http://www.w3.org/2000/svg">
<path fill-rule="evenodd" clip-rule="evenodd" d="M12.0112 12.0005C11.4589 12.0005 11.0112 12.4482 11.0112 13.0005C11.0112 13.5528 11.4589 14.0005 12.0112 14.0005L16.024 14.0005C16.5763 14.0005 17.024 13.5528 17.024 13.0005C17.024 12.4482 16.5763 12.0005 16.024 12.0005H12.0112ZM7.99951 16.0135C7.44723 16.0135 6.99951 16.4612 6.99951 17.0135C6.99951 17.5658 7.44723 18.0135 7.99951 18.0135L16.0251 18.0135C16.5774 18.0135 17.0251 17.5658 17.0251 17.0135C17.0251 16.4612 16.5774 16.0135 16.0251 16.0135L7.99951 16.0135Z" fill="#D9D9D9"/>
<path d="M17 5.22825C15.9259 5.12747 14.683 5.08602 13.2522 5.08602C4.41574 5.08602 2.30081 6.66693 1.26962 14.043C1.11233 15.1681 1.01796 16.1583 1.00232 17.0287M17 5.22825C22.5595 5.7499 23.5946 7.86123 22.7304 14.043C21.6992 21.4191 19.5843 23 10.7478 23C3.25913 23 0.91541 21.8646 1.00232 17.0287M17 5.22825C17 5.22825 17.1522 4.30766 17 3.09558C16.625 0.109886 4.30292 0.499858 3.00005 3.09558C1.00195 7.07641 1.00232 17.0287 1.00232 17.0287" stroke="#D9D9D9" stroke-width="2" stroke-linecap="round" stroke-linejoin="round"/>
</svg>
