<svg width="30" height="30" viewBox="0 0 30 30" fill="none" xmlns="http://www.w3.org/2000/svg">
<path d="M23.7326 8.6375C23.7995 5.15937 20.9295 2.48937 16.9832 2.48937H8.82196C8.63172 2.48943 8.44775 2.55739 8.30315 2.68102C8.15856 2.80465 8.06284 2.97583 8.03321 3.16375L4.76259 23.5987C4.74796 23.6913 4.75357 23.786 4.77903 23.8762C4.8045 23.9664 4.84921 24.0501 4.9101 24.1213C4.97098 24.1926 5.04659 24.2499 5.13172 24.2891C5.21685 24.3284 5.30947 24.3487 5.40321 24.3487H10.2388L9.48259 29.0812C9.46795 29.1739 9.47357 29.2686 9.49907 29.3589C9.52458 29.4491 9.56935 29.5328 9.6303 29.6041C9.69125 29.6754 9.76694 29.7326 9.85214 29.7718C9.93735 29.811 10.03 29.8313 10.1238 29.8312H14.0626C14.2532 29.8312 14.4226 29.7625 14.567 29.6394C14.7113 29.5156 14.7351 29.345 14.7645 29.1569L15.9207 22.3537C15.9501 22.1662 16.0457 21.9225 16.1907 21.7987C16.3351 21.675 16.4613 21.6075 16.6513 21.6069H19.0626C22.927 21.6069 26.2063 18.8606 26.8057 15.04C27.2295 12.3275 26.067 9.86062 23.7332 8.6375H23.7326Z" fill="#001C64"/>
<path d="M11.285 16.8125L10.0806 24.45L9.32436 29.24C9.30972 29.3326 9.31534 29.4274 9.34084 29.5176C9.36634 29.6079 9.41111 29.6915 9.47207 29.7628C9.53302 29.8341 9.60871 29.8914 9.69391 29.9306C9.77912 29.9698 9.87181 29.9901 9.96561 29.99H14.1344C14.3245 29.9898 14.5083 29.9218 14.6528 29.7981C14.7972 29.6745 14.8929 29.5034 14.9225 29.3156L16.0212 22.3531C16.0509 22.1654 16.1465 21.9943 16.291 21.8708C16.4355 21.7473 16.6193 21.6794 16.8094 21.6794H19.2637C23.1281 21.6794 26.4069 18.8606 27.0062 15.04C27.4312 12.3281 26.0662 9.86125 23.7325 8.6375C23.7262 8.92625 23.7012 9.21437 23.6569 9.5C23.0575 13.32 19.7781 16.1394 15.9137 16.1394H12.0731C11.8831 16.1394 11.6994 16.2072 11.5549 16.3306C11.4104 16.454 11.3147 16.6249 11.285 16.8125V16.8125Z" fill="#0070E0"/>
<path d="M10.08 24.45H5.22998C5.1362 24.4501 5.04353 24.4298 4.95835 24.3906C4.87317 24.3514 4.79751 24.2941 4.73661 24.2228C4.6757 24.1515 4.63099 24.0678 4.60557 23.9776C4.58015 23.8873 4.57462 23.7926 4.58936 23.7L7.85936 2.96125C7.88899 2.77339 7.98474 2.60228 8.12935 2.47876C8.27396 2.35524 8.45792 2.28741 8.64811 2.2875H16.9837C20.9294 2.2875 23.7994 5.15937 23.7325 8.6375C22.7506 8.1225 21.5969 7.82812 20.3325 7.82812H13.3831C13.1931 7.82831 13.0093 7.89625 12.8649 8.01974C12.7204 8.14323 12.6247 8.31417 12.595 8.50187L11.2856 16.8125L10.0794 24.45H10.08Z" fill="#003087"/>
</svg>
