<svg width="30" height="30" viewBox="0 0 30 30" fill="none" xmlns="http://www.w3.org/2000/svg">
<g clip-path="url(#clip0_229_16481)">
<path d="M26.8386 0H1.54709C0.73991 0 0 0.744921 0 1.62528V4.46953C0 5.34989 0.73991 6.09481 1.54709 6.09481H26.8386C27.713 6.09481 28.3857 5.34989 28.4529 4.46953V1.62528C28.4529 0.744921 27.713 0 26.8386 0ZM26.8386 15.9819H1.54709C1.1435 15.9819 0.73991 16.1851 0.403587 16.456C0.134529 16.7269 0 17.1332 0 17.6072V20.4515C0 21.3318 0.73991 22.0767 1.54709 22.0767H26.8386C27.713 22.0767 28.3857 21.3996 28.4529 20.4515V17.6072C28.4529 16.6591 27.713 15.9819 26.8386 15.9819ZM15.8072 23.9729H1.54709C1.1435 23.9729 0.73991 24.1084 0.470852 24.447C0.201794 24.7178 0 25.1242 0 25.5982V28.4424C0 29.3228 0.73991 30.0677 1.54709 30.0677H15.7399C16.6144 30.0677 17.287 29.3228 17.287 28.4424V25.5305C17.3543 24.6501 16.6816 23.9729 15.8072 23.9729ZM28.4529 7.99097H1.54709C1.1435 7.99097 0.73991 8.12641 0.470852 8.46501C0.201794 8.73589 0 9.14221 0 9.61625V12.4605C0 13.3409 0.73991 14.0858 1.54709 14.0858H28.3857C29.2601 14.0858 29.9327 13.3409 29.9327 12.4605V9.61625C30 8.73589 29.3274 7.99097 28.4529 7.99097Z" fill="#00C3F7"/>
</g>
<defs>
<clipPath id="clip0_229_16481">
<rect width="30" height="30" fill="white"/>
</clipPath>
</defs>
</svg>
