<svg width="28" height="24" viewBox="0 0 28 24" fill="none" xmlns="http://www.w3.org/2000/svg">
<path d="M10.999 18.9985C10.999 19.9819 11.0969 20.6591 11.2915 21.1454C11.47 21.5916 11.7426 21.9114 12.2054 22.1684C12.7042 22.4456 13.4511 22.6634 14.5886 22.8038C15.7181 22.9433 17.1583 22.9985 18.999 22.9985C20.8397 22.9985 22.28 22.9433 23.4095 22.8038C24.547 22.6634 25.2938 22.4456 25.7927 22.1684C26.2554 21.9114 26.5281 21.5916 26.7065 21.1454C26.9011 20.6591 26.999 19.9819 26.999 18.9985C26.999 18.0151 26.9011 17.338 26.7065 16.8516C26.5281 16.4055 26.2554 16.0857 25.7927 15.8286C25.2938 15.5515 24.547 15.3337 23.4095 15.1932C22.28 15.0538 20.8397 14.9985 18.999 14.9985C17.1583 14.9985 15.7181 15.0538 14.5886 15.1932C13.4511 15.3337 12.7042 15.5515 12.2054 15.8286C11.7426 16.0857 11.47 16.4055 11.2915 16.8516C11.0969 17.338 10.999 18.0151 10.999 18.9985Z" stroke="#D9D9D9" stroke-width="2" stroke-linecap="round" stroke-linejoin="round"/>
<circle r="5" transform="matrix(-1 0 0 1 18.9995 6)" stroke="#D9D9D9" stroke-width="2"/>
<path d="M10.999 3C8.59902 3 6.99902 5 6.99902 7C6.99902 9 8.59902 11 10.999 11" stroke="#D9D9D9" stroke-width="2" stroke-linecap="round" stroke-linejoin="round"/>
<path d="M6.86667 20.9963C3.13333 20.9963 1 20.4963 1 17.4963C1 14.4963 3.13333 13.9963 9 13.9963" stroke="#D9D9D9" stroke-width="2" stroke-linecap="round" stroke-linejoin="round"/>
</svg>
