<svg width="21" height="24" viewBox="0 0 21 24" fill="none" xmlns="http://www.w3.org/2000/svg">
<path d="M2.24058 15.0572C1.72801 14.5365 0.896985 14.5365 0.384422 15.0572C-0.128141 15.5779 -0.128141 16.4221 0.384422 16.9428L6.94692 23.6094C7.32229 23.9908 7.88682 24.1048 8.37727 23.8985C8.86772 23.6921 9.1875 23.2059 9.1875 22.6666L9.1875 1.33333C9.1875 0.596953 8.59987 0 7.875 0C7.15013 0 6.5625 0.596953 6.5625 1.33333L6.5625 19.4477L2.24058 15.0572Z" fill="#FF6600"/>
<path d="M18.7594 8.94283C19.272 9.46353 20.103 9.46353 20.6156 8.94283C21.1281 8.42214 21.1281 7.57792 20.6156 7.05722L14.0531 0.390563C13.6777 0.00923255 13.1132 -0.104842 12.6227 0.101533C12.1323 0.307907 11.8125 0.794088 11.8125 1.33337V22.6667C11.8125 23.403 12.4001 24 13.125 24C13.8499 24 14.4375 23.403 14.4375 22.6667L14.4375 4.55232L18.7594 8.94283Z" fill="#1A0709"/>
</svg>
