<svg width="22" height="24" viewBox="0 0 22 24" fill="none" xmlns="http://www.w3.org/2000/svg">
<path d="M2.74058 15.0572C2.22801 14.5365 1.39699 14.5365 0.884422 15.0572C0.371859 15.5779 0.371859 16.4221 0.884422 16.9428L7.44692 23.6094C7.82229 23.9908 8.38682 24.1048 8.87727 23.8985C9.36772 23.6921 9.6875 23.2059 9.6875 22.6666L9.6875 1.33333C9.6875 0.596953 9.09987 0 8.375 0C7.65013 0 7.0625 0.596953 7.0625 1.33333L7.0625 19.4477L2.74058 15.0572Z" fill="#FF6600"/>
<path d="M19.2594 8.94283C19.772 9.46353 20.603 9.46353 21.1156 8.94283C21.6281 8.42214 21.6281 7.57792 21.1156 7.05722L14.5531 0.390563C14.1777 0.00923255 13.6132 -0.104842 13.1227 0.101533C12.6323 0.307907 12.3125 0.794088 12.3125 1.33337V22.6667C12.3125 23.403 12.9001 24 13.625 24C14.3499 24 14.9375 23.403 14.9375 22.6667L14.9375 4.55232L19.2594 8.94283Z" fill="#D9D9D9"/>
</svg>
