<svg width="38" height="38" viewBox="0 0 38 38" fill="none" xmlns="http://www.w3.org/2000/svg">
<g filter="url(#filter0_d_64_16443)">
<path d="M30 15C30 13.8947 29.9731 12.8985 29.9125 12H29.9067H29.8951H29.8834H29.8717H29.8599H29.848H29.8361H29.8241H29.8121H29.8H29.7878H29.7756H29.7634H29.7511H29.7387H29.7263H29.7138H29.7013H29.6887H29.6761H29.6634H29.6506H29.6378H29.625H29.6121H29.5991H29.5861H29.5731H29.56H29.5468H29.5336H29.5203H29.507H29.4937H29.4803H29.4668H29.4533H29.4398H29.4261H29.4125H29.3988H29.385H29.3713H29.3574H29.3435H29.3296H29.3156H29.3016H29.2875H29.2734H29.2592H29.245H29.2308H29.2165H29.2021H29.1877H29.1733H29.1588H29.1443H29.1298H29.1152H29.1005H29.0858H29.0711H29.0563H29.0415H29.0267H29.0118H28.9969H28.9819H28.9669H28.9518H28.9368H28.9216H28.9065H28.8913H28.876H28.8607H28.8454H28.8301H28.8147H28.7993H28.7838H28.7683H28.7528H28.7372H28.7216H28.7059H28.6903H28.6746H28.6588H28.643H28.6272H28.6114H28.5955H28.5796H28.5637H28.5477H28.5317H28.5156H28.4996H28.4835H28.4673H28.4512H28.435H28.4188H28.4025H28.3862H28.3699H28.3536H28.3372H28.3208H28.3044H28.2879H28.2714H28.2549H28.2384H28.2218H28.2053H28.1886H28.172H28.1553H28.1387H28.1219H28.1052H28.0884H28.0716H28.0548H28.038H28.0211H28.0043H27.9873H27.9704H27.9535H27.9365H27.9195H27.9025H27.8855H27.8684H27.8513H27.8342H27.8171H27.8H27.7828H27.7656H27.7484H27.7312H27.714H27.6967H27.6795H27.6622H27.6449H27.6276H27.6102H27.5929H27.5755H27.5581H27.5407H27.5233H27.5059H27.4884H27.4709H27.4535H27.436H27.4185H27.401H27.3834H27.3659H27.3483H27.3308H27.3132H27.2956H27.278H27.2604H27.2427H27.2251H27.2075H27.1898H27.1721H27.1545H27.1368H27.1191H27.1014H27.0837H27.0659H27.0482H27.0305H27.0127H26.995H26.9772H26.9595H26.9417H26.9239H26.9061H26.8883H26.8705H26.8527H26.8349H26.8171H26.7993H26.7815H26.7637H26.7459H26.728H26.7102H26.6924H26.6746H26.6567H26.6389H26.6211H26.6032H26.5854H26.5675H26.5497H26.5319H26.514H26.4962H26.4783H26.4605H26.4427H26.4248H26.407H26.3892H26.3714H26.3535H26.3357H26.3179H26.3001H26.2823H26.2645H26.2467H26.2289H26.2111H26.1933H26.1755H26.1577H26.14H26.1222H26.1045H26.0867H26.069H26.0512H26.0335H26.0158H25.9981H25.9804H25.9627H25.945H25.9273H25.9097H25.892H25.8744H25.8567H25.8391H25.8215H25.8039H25.7863H25.7687H25.7512H25.7336H25.7161H25.6986H25.681H25.6635H25.6461H25.6286H25.6111H25.5937H25.5763H25.5588H25.5415H25.5241H25.5067H25.4894H25.472H25.4547H25.4374H25.4201H25.4029H25.3856H25.3684H25.3512H25.334H25.3168H25.2997H25.2826H25.2654H25.2483H25.2313H25.2142H25.1972H25.1802H25.1632H25.1462H25.1293H25.1124H25.0955H25.0786H25.0618H25.0449H25.0281H25.0113H24.9946H24.9779H24.9611H24.9445H24.9278H24.9112H24.8946H24.878H24.8614H24.8449H24.8284H24.812H24.7955H24.7791H24.7627H24.7464H24.73H24.7137H24.6975H24.6812H24.665H24.6488H24.6327H24.6165H24.6005H24.5844H24.5684H24.5524H24.5364H24.5205H24.5046H24.4887H24.4729H24.4571H24.4413H24.4256H24.4099H24.3942H24.3786H24.363H24.3474H24.3319H24.3164H24.301H24.2856H24.2702H24.2549H24.2396H24.2243H24.2091H24.1939H24.1787H24.1636H24.1485H24.1335H24.1185H24.1035H24.0886H24.0738H24.0589H24.0441H24.0294H24.0147H24C22.1324 12 21 13.4686 21 15C21 16.5314 22.1324 18 24 18L28.3536 18H29.9125C29.9731 17.1015 30 16.1053 30 15ZM29.6953 20L28.3536 20L24 20C20.8676 20 19 17.4686 19 15C19 12.5314 20.8676 10 24 10H24.0147H24.0294H24.0441H24.0589H24.0738H24.0886H24.1035H24.1185H24.1335H24.1485H24.1636H24.1787H24.1939H24.2091H24.2243H24.2396H24.2549H24.2702H24.2856H24.301H24.3164H24.3319H24.3474H24.363H24.3786H24.3942H24.4099H24.4256H24.4413H24.4571H24.4729H24.4887H24.5046H24.5205H24.5364H24.5524H24.5684H24.5844H24.6005H24.6165H24.6327H24.6488H24.665H24.6812H24.6975H24.7137H24.73H24.7464H24.7627H24.7791H24.7955H24.812H24.8284H24.8449H24.8614H24.878H24.8946H24.9112H24.9278H24.9445H24.9611H24.9779H24.9946H25.0113H25.0281H25.0449H25.0618H25.0786H25.0955H25.1124H25.1293H25.1462H25.1632H25.1802H25.1972H25.2142H25.2313H25.2483H25.2654H25.2826H25.2997H25.3168H25.334H25.3512H25.3684H25.3856H25.4029H25.4201H25.4374H25.4547H25.472H25.4894H25.5067H25.5241H25.5415H25.5588H25.5763H25.5937H25.6111H25.6286H25.6461H25.6635H25.681H25.6986H25.7161H25.7336H25.7512H25.7687H25.7863H25.8039H25.8215H25.8391H25.8567H25.8744H25.892H25.9097H25.9273H25.945H25.9627H25.9804H25.9981H26.0158H26.0335H26.0512H26.069H26.0867H26.1045H26.1222H26.14H26.1577H26.1755H26.1933H26.2111H26.2289H26.2467H26.2645H26.2823H26.3001H26.3179H26.3357H26.3535H26.3714H26.3892H26.407H26.4248H26.4427H26.4605H26.4783H26.4962H26.514H26.5319H26.5497H26.5675H26.5854H26.6032H26.6211H26.6389H26.6567H26.6746H26.6924H26.7102H26.728H26.7459H26.7637H26.7815H26.7993H26.8171H26.8349H26.8527H26.8705H26.8883H26.9061H26.9239H26.9417H26.9595H26.9772H26.995H27.0127H27.0305H27.0482H27.0659H27.0837H27.1014H27.1191H27.1368H27.1545H27.1721H27.1898H27.2075H27.2251H27.2427H27.2604H27.278H27.2956H27.3132H27.3308H27.3483H27.3659H27.3834H27.401H27.4185H27.436H27.4535H27.4709H27.4884H27.5059H27.5233H27.5407H27.5581H27.5755H27.5929H27.6102H27.6276H27.6449H27.6622H27.6795H27.6967H27.714H27.7312H27.7484H27.7656H27.7828H27.8H27.8171H27.8342H27.8513H27.8684H27.8855H27.9025H27.9195H27.9365H27.9535H27.9704H27.9873H28.0043H28.0211H28.038H28.0548H28.0716H28.0884H28.1052H28.1219H28.1387H28.1553H28.172H28.1886H28.2053H28.2218H28.2384H28.2549H28.2714H28.2879H28.3044H28.3208H28.3372H28.3536H28.3699H28.3862H28.4025H28.4188H28.435H28.4512H28.4673H28.4835H28.4996H28.5156H28.5317H28.5477H28.5637H28.5796H28.5955H28.6114H28.6272H28.643H28.6588H28.6746H28.6903H28.7059H28.7216H28.7372H28.7528H28.7683H28.7838H28.7993H28.8147H28.8301H28.8454H28.8607H28.876H28.8913H28.9065H28.9216H28.9368H28.9518H28.9669H28.9819H28.9969H29.0118H29.0267H29.0415H29.0563H29.0711H29.0858H29.1005H29.1152H29.1298H29.1443H29.1588H29.1733H29.1877H29.2021H29.2165H29.2308H29.245H29.2592H29.2734H29.2875H29.3016H29.3156H29.3296H29.3435H29.3574H29.3713H29.385H29.3988H29.4125H29.4261H29.4398H29.4533H29.4668H29.4803H29.4937H29.507H29.5203H29.5336H29.5468H29.56H29.5731H29.5861H29.5991H29.6121H29.625H29.6378H29.6506H29.6634H29.6761H29.6887H29.6953C29.3083 7.5792 28.5331 6.2344 27.2641 5.40859C25.7101 4.39733 23.1976 4 19 4C16.5523 4 14.6537 4.13246 13.173 4.46153C11.7037 4.78807 10.7079 5.29478 10.0014 6.00136C9.29478 6.70794 8.78807 7.70365 8.46153 9.17298C8.13246 10.6537 8 12.5523 8 15C8 17.4477 8.13246 19.3463 8.46153 20.827C8.78807 22.2963 9.29478 23.2921 10.0014 23.9986C10.7079 24.7052 11.7037 25.2119 13.173 25.5385C14.6537 25.8675 16.5523 26 19 26C23.1976 26 25.7101 25.6027 27.2641 24.5914C28.5331 23.7656 29.3083 22.4208 29.6953 20ZM24 16C23.4477 16 23 15.5523 23 15C23 14.4477 23.4477 14 24 14H26C26.5523 14 27 14.4477 27 15C27 15.5523 26.5523 16 26 16H24Z" stroke="#FF6600" stroke-width="2" stroke-linecap="round" stroke-linejoin="round"/>
</g>
<defs>
<filter id="filter0_d_64_16443" x="0" y="0" width="38" height="38" filterUnits="userSpaceOnUse" color-interpolation-filters="sRGB">
<feFlood flood-opacity="0" result="BackgroundImageFix"/>
<feColorMatrix in="SourceAlpha" type="matrix" values="0 0 0 0 0 0 0 0 0 0 0 0 0 0 0 0 0 0 127 0" result="hardAlpha"/>
<feOffset dy="4"/>
<feGaussianBlur stdDeviation="3.5"/>
<feComposite in2="hardAlpha" operator="out"/>
<feColorMatrix type="matrix" values="0 0 0 0 0 0 0 0 0 0 0 0 0 0 0 0 0 0 0.25 0"/>
<feBlend mode="normal" in2="BackgroundImageFix" result="effect1_dropShadow_64_16443"/>
<feBlend mode="normal" in="SourceGraphic" in2="effect1_dropShadow_64_16443" result="shape"/>
</filter>
</defs>
</svg>
